<mxfile host="app.diagrams.net" modified="2024-02-15T16:02:52.131Z" agent="Mozilla/5.0 (Windows NT 10.0; Win64; x64) AppleWebKit/537.36 (KHTML, like Gecko) Chrome/121.0.0.0 Safari/537.36" etag="s5ACUgFFEjUr-vcRGE2Q" version="23.1.2" type="device">
  <diagram id="R2lEEEUBdFMjLlhIrx00" name="Page-1">
    <mxGraphModel dx="2899" dy="2214" grid="1" gridSize="10" guides="1" tooltips="1" connect="1" arrows="1" fold="1" page="1" pageScale="1" pageWidth="850" pageHeight="1100" math="0" shadow="0" extFonts="Permanent Marker^https://fonts.googleapis.com/css?family=Permanent+Marker">
      <root>
        <mxCell id="0" />
        <mxCell id="1" parent="0" />
        <mxCell id="XK4Mc1q5ekKsyZJ8U_UK-17" value="Área" style="whiteSpace=wrap;html=1;align=center;fillColor=#97D077;" parent="1" vertex="1">
          <mxGeometry x="1280" y="30" width="100" height="40" as="geometry" />
        </mxCell>
        <mxCell id="XK4Mc1q5ekKsyZJ8U_UK-16" value="" style="rounded=0;whiteSpace=wrap;html=1;fillColor=none;strokeColor=#000000;" parent="1" vertex="1">
          <mxGeometry x="1290" y="40" width="80" height="20" as="geometry" />
        </mxCell>
        <mxCell id="XK4Mc1q5ekKsyZJ8U_UK-1" value="Parque Natural" style="whiteSpace=wrap;html=1;align=center;fillColor=#97D077;" parent="1" vertex="1">
          <mxGeometry x="740" y="30" width="100" height="40" as="geometry" />
        </mxCell>
        <mxCell id="XK4Mc1q5ekKsyZJ8U_UK-9" value="" style="triangle;whiteSpace=wrap;html=1;rotation=90;fillColor=#7EA6E0;" parent="1" vertex="1">
          <mxGeometry x="790" y="880" width="40" height="60" as="geometry" />
        </mxCell>
        <mxCell id="XK4Mc1q5ekKsyZJ8U_UK-11" value="Nombre" style="ellipse;whiteSpace=wrap;html=1;align=center;fillColor=#FFD966;" parent="1" vertex="1">
          <mxGeometry x="740" y="-40" width="100" height="40" as="geometry" />
        </mxCell>
        <mxCell id="XK4Mc1q5ekKsyZJ8U_UK-12" value="&lt;u&gt;IDParque&lt;/u&gt;" style="ellipse;whiteSpace=wrap;html=1;align=center;fillColor=#FFD966;" parent="1" vertex="1">
          <mxGeometry x="880" y="-40" width="100" height="40" as="geometry" />
        </mxCell>
        <mxCell id="XK4Mc1q5ekKsyZJ8U_UK-13" value="FechaDeclaración" style="ellipse;whiteSpace=wrap;html=1;align=center;fillColor=#FFD966;" parent="1" vertex="1">
          <mxGeometry x="600" y="-40" width="100" height="40" as="geometry" />
        </mxCell>
        <mxCell id="XK4Mc1q5ekKsyZJ8U_UK-18" value="Nombre" style="ellipse;whiteSpace=wrap;html=1;align=center;fillColor=#FFD966;" parent="1" vertex="1">
          <mxGeometry x="1140" y="-40" width="100" height="40" as="geometry" />
        </mxCell>
        <mxCell id="XK4Mc1q5ekKsyZJ8U_UK-19" value="Extensión" style="ellipse;whiteSpace=wrap;html=1;align=center;fillColor=#FFD966;" parent="1" vertex="1">
          <mxGeometry x="1412.5" y="-40" width="100" height="40" as="geometry" />
        </mxCell>
        <mxCell id="XK4Mc1q5ekKsyZJ8U_UK-25" value="" style="triangle;whiteSpace=wrap;html=1;rotation=90;fillColor=#7EA6E0;" parent="1" vertex="1">
          <mxGeometry x="2080" y="180" width="40" height="60" as="geometry" />
        </mxCell>
        <mxCell id="XK4Mc1q5ekKsyZJ8U_UK-26" value="Tipo" style="ellipse;whiteSpace=wrap;html=1;align=center;fillColor=#FFD966;" parent="1" vertex="1">
          <mxGeometry x="2150" y="150" width="100" height="40" as="geometry" />
        </mxCell>
        <mxCell id="XK4Mc1q5ekKsyZJ8U_UK-27" value="Animal" style="whiteSpace=wrap;html=1;align=center;fillColor=#97D077;" parent="1" vertex="1">
          <mxGeometry x="2190" y="290" width="100" height="40" as="geometry" />
        </mxCell>
        <mxCell id="XK4Mc1q5ekKsyZJ8U_UK-28" value="Vegetal" style="whiteSpace=wrap;html=1;align=center;fillColor=#97D077;" parent="1" vertex="1">
          <mxGeometry x="1940" y="290" width="100" height="40" as="geometry" />
        </mxCell>
        <mxCell id="XK4Mc1q5ekKsyZJ8U_UK-32" value="Floración" style="ellipse;whiteSpace=wrap;html=1;align=center;fillColor=#FFD966;" parent="1" vertex="1">
          <mxGeometry x="1880" y="380" width="100" height="40" as="geometry" />
        </mxCell>
        <mxCell id="XK4Mc1q5ekKsyZJ8U_UK-33" value="PeríodoProd" style="ellipse;whiteSpace=wrap;html=1;align=center;fillColor=#FFD966;" parent="1" vertex="1">
          <mxGeometry x="2000" y="380" width="100" height="40" as="geometry" />
        </mxCell>
        <mxCell id="XK4Mc1q5ekKsyZJ8U_UK-34" value="TipoAlimentación" style="ellipse;whiteSpace=wrap;html=1;align=center;fillColor=#FFD966;" parent="1" vertex="1">
          <mxGeometry x="2255" y="380" width="100" height="40" as="geometry" />
        </mxCell>
        <mxCell id="XK4Mc1q5ekKsyZJ8U_UK-35" value="Herbívora" style="ellipse;whiteSpace=wrap;html=1;align=center;fillColor=#FFD966;" parent="1" vertex="1">
          <mxGeometry x="2140" y="470" width="100" height="40" as="geometry" />
        </mxCell>
        <mxCell id="XK4Mc1q5ekKsyZJ8U_UK-36" value="Carnívora" style="ellipse;whiteSpace=wrap;html=1;align=center;fillColor=#FFD966;" parent="1" vertex="1">
          <mxGeometry x="2370" y="470" width="100" height="40" as="geometry" />
        </mxCell>
        <mxCell id="XK4Mc1q5ekKsyZJ8U_UK-37" value="Omnívora" style="ellipse;whiteSpace=wrap;html=1;align=center;fillColor=#FFD966;" parent="1" vertex="1">
          <mxGeometry x="2255" y="470" width="100" height="40" as="geometry" />
        </mxCell>
        <mxCell id="XK4Mc1q5ekKsyZJ8U_UK-38" value="PeríodoCelo" style="ellipse;whiteSpace=wrap;html=1;align=center;fillColor=#FFD966;" parent="1" vertex="1">
          <mxGeometry x="2140" y="380" width="100" height="40" as="geometry" />
        </mxCell>
        <mxCell id="XK4Mc1q5ekKsyZJ8U_UK-39" value="Se alimenta de" style="shape=rhombus;perimeter=rhombusPerimeter;whiteSpace=wrap;html=1;align=center;fillColor=#EA6B66;" parent="1" vertex="1">
          <mxGeometry x="2450" y="280" width="120" height="60" as="geometry" />
        </mxCell>
        <mxCell id="XK4Mc1q5ekKsyZJ8U_UK-40" value="Consta" style="shape=rhombus;perimeter=rhombusPerimeter;whiteSpace=wrap;html=1;align=center;fillColor=#EA6B66;" parent="1" vertex="1">
          <mxGeometry x="750" y="670" width="120" height="60" as="geometry" />
        </mxCell>
        <mxCell id="XK4Mc1q5ekKsyZJ8U_UK-42" value="Personal" style="whiteSpace=wrap;html=1;align=center;fillColor=#97D077;" parent="1" vertex="1">
          <mxGeometry x="760" y="790" width="100" height="40" as="geometry" />
        </mxCell>
        <mxCell id="XK4Mc1q5ekKsyZJ8U_UK-43" value="&lt;u&gt;DNI&lt;/u&gt;" style="ellipse;whiteSpace=wrap;html=1;align=center;fillColor=#FFD966;" parent="1" vertex="1">
          <mxGeometry x="630" y="720" width="100" height="40" as="geometry" />
        </mxCell>
        <mxCell id="XK4Mc1q5ekKsyZJ8U_UK-44" value="&lt;b&gt;NºSS&lt;/b&gt;" style="ellipse;whiteSpace=wrap;html=1;align=center;fillColor=#FFD966;" parent="1" vertex="1">
          <mxGeometry x="900" y="860" width="100" height="40" as="geometry" />
        </mxCell>
        <mxCell id="XK4Mc1q5ekKsyZJ8U_UK-45" value="Nombre" style="ellipse;whiteSpace=wrap;html=1;align=center;fillColor=#FFD966;" parent="1" vertex="1">
          <mxGeometry x="630" y="860" width="100" height="40" as="geometry" />
        </mxCell>
        <mxCell id="XK4Mc1q5ekKsyZJ8U_UK-46" value="Dirección" style="ellipse;whiteSpace=wrap;html=1;align=center;fillColor=#FFD966;" parent="1" vertex="1">
          <mxGeometry x="890" y="720" width="100" height="40" as="geometry" />
        </mxCell>
        <mxCell id="XK4Mc1q5ekKsyZJ8U_UK-47" value="Teléfono" style="ellipse;whiteSpace=wrap;html=1;align=center;fillColor=#FFD966;" parent="1" vertex="1">
          <mxGeometry x="630" y="790" width="100" height="40" as="geometry" />
        </mxCell>
        <mxCell id="XK4Mc1q5ekKsyZJ8U_UK-48" value="Domicilio" style="ellipse;whiteSpace=wrap;html=1;align=center;fillColor=#FFD966;" parent="1" vertex="1">
          <mxGeometry x="500" y="740" width="100" height="40" as="geometry" />
        </mxCell>
        <mxCell id="XK4Mc1q5ekKsyZJ8U_UK-49" value="Móvil" style="ellipse;whiteSpace=wrap;html=1;align=center;fillColor=#FFD966;" parent="1" vertex="1">
          <mxGeometry x="500" y="820" width="100" height="40" as="geometry" />
        </mxCell>
        <mxCell id="XK4Mc1q5ekKsyZJ8U_UK-50" value="Gestión" style="whiteSpace=wrap;html=1;align=center;fillColor=#97D077;" parent="1" vertex="1">
          <mxGeometry x="450" y="1000" width="100" height="40" as="geometry" />
        </mxCell>
        <mxCell id="XK4Mc1q5ekKsyZJ8U_UK-51" value="Investigador" style="whiteSpace=wrap;html=1;align=center;fillColor=#97D077;" parent="1" vertex="1">
          <mxGeometry x="640" y="1000" width="100" height="40" as="geometry" />
        </mxCell>
        <mxCell id="XK4Mc1q5ekKsyZJ8U_UK-52" value="Conservación" style="whiteSpace=wrap;html=1;align=center;fillColor=#97D077;" parent="1" vertex="1">
          <mxGeometry x="880" y="1000" width="100" height="40" as="geometry" />
        </mxCell>
        <mxCell id="XK4Mc1q5ekKsyZJ8U_UK-53" value="Vigilancia" style="whiteSpace=wrap;html=1;align=center;fillColor=#97D077;" parent="1" vertex="1">
          <mxGeometry x="1030" y="1000" width="100" height="40" as="geometry" />
        </mxCell>
        <mxCell id="XK4Mc1q5ekKsyZJ8U_UK-54" value="Comunidad Autónoma" style="whiteSpace=wrap;html=1;align=center;fillColor=#97D077;" parent="1" vertex="1">
          <mxGeometry x="760" y="350" width="100" height="40" as="geometry" />
        </mxCell>
        <mxCell id="XK4Mc1q5ekKsyZJ8U_UK-56" value="Organismo" style="whiteSpace=wrap;html=1;align=center;fillColor=#97D077;" parent="1" vertex="1">
          <mxGeometry x="760" y="570" width="100" height="40" as="geometry" />
        </mxCell>
        <mxCell id="XK4Mc1q5ekKsyZJ8U_UK-57" value="Hay" style="shape=rhombus;perimeter=rhombusPerimeter;whiteSpace=wrap;html=1;align=center;fillColor=#EA6B66;" parent="1" vertex="1">
          <mxGeometry x="750" y="450" width="120" height="60" as="geometry" />
        </mxCell>
        <mxCell id="XK4Mc1q5ekKsyZJ8U_UK-58" value="NºEntrada" style="ellipse;whiteSpace=wrap;html=1;align=center;fillColor=#FFD966;" parent="1" vertex="1">
          <mxGeometry x="450" y="1080" width="100" height="40" as="geometry" />
        </mxCell>
        <mxCell id="XK4Mc1q5ekKsyZJ8U_UK-62" style="edgeStyle=orthogonalEdgeStyle;rounded=0;orthogonalLoop=1;jettySize=auto;html=1;exitX=0.5;exitY=1;exitDx=0;exitDy=0;" parent="1" edge="1">
          <mxGeometry relative="1" as="geometry">
            <mxPoint x="890" y="1120" as="sourcePoint" />
            <mxPoint x="890" y="1120" as="targetPoint" />
          </mxGeometry>
        </mxCell>
        <mxCell id="XK4Mc1q5ekKsyZJ8U_UK-64" value="Proyecto" style="whiteSpace=wrap;html=1;align=center;fillColor=#97D077;" parent="1" vertex="1">
          <mxGeometry x="1452.5" y="1187.5" width="100" height="40" as="geometry" />
        </mxCell>
        <mxCell id="XK4Mc1q5ekKsyZJ8U_UK-65" value="Trabaja" style="shape=rhombus;perimeter=rhombusPerimeter;whiteSpace=wrap;html=1;align=center;fillColor=#EA6B66;" parent="1" vertex="1">
          <mxGeometry x="1230" y="1177.5" width="120" height="60" as="geometry" />
        </mxCell>
        <mxCell id="XK4Mc1q5ekKsyZJ8U_UK-66" value="&lt;u&gt;CodProyecto&lt;/u&gt;" style="ellipse;whiteSpace=wrap;html=1;align=center;fillColor=#FFD966;" parent="1" vertex="1">
          <mxGeometry x="1452.5" y="1260" width="100" height="40" as="geometry" />
        </mxCell>
        <mxCell id="XK4Mc1q5ekKsyZJ8U_UK-67" value="Presupuesto" style="ellipse;whiteSpace=wrap;html=1;align=center;fillColor=#FFD966;" parent="1" vertex="1">
          <mxGeometry x="1312.5" y="1260" width="100" height="40" as="geometry" />
        </mxCell>
        <mxCell id="XK4Mc1q5ekKsyZJ8U_UK-68" value="PeríodoRealización" style="ellipse;whiteSpace=wrap;html=1;align=center;fillColor=#FFD966;" parent="1" vertex="1">
          <mxGeometry x="1572.5" y="1260" width="115" height="35" as="geometry" />
        </mxCell>
        <mxCell id="elfq-VPX6zYNHn0ozQoe-10" value="" style="endArrow=none;html=1;rounded=0;entryX=0;entryY=0;entryDx=0;entryDy=0;exitX=1;exitY=1;exitDx=0;exitDy=0;" parent="1" source="XK4Mc1q5ekKsyZJ8U_UK-13" target="XK4Mc1q5ekKsyZJ8U_UK-1" edge="1">
          <mxGeometry width="50" height="50" relative="1" as="geometry">
            <mxPoint x="660" y="290" as="sourcePoint" />
            <mxPoint x="710" y="240" as="targetPoint" />
          </mxGeometry>
        </mxCell>
        <mxCell id="elfq-VPX6zYNHn0ozQoe-11" value="" style="endArrow=none;html=1;rounded=0;entryX=0.5;entryY=0;entryDx=0;entryDy=0;exitX=0.5;exitY=1;exitDx=0;exitDy=0;" parent="1" source="XK4Mc1q5ekKsyZJ8U_UK-11" target="XK4Mc1q5ekKsyZJ8U_UK-1" edge="1">
          <mxGeometry width="50" height="50" relative="1" as="geometry">
            <mxPoint x="660" y="290" as="sourcePoint" />
            <mxPoint x="710" y="240" as="targetPoint" />
          </mxGeometry>
        </mxCell>
        <mxCell id="elfq-VPX6zYNHn0ozQoe-12" value="" style="endArrow=none;html=1;rounded=0;entryX=1;entryY=0;entryDx=0;entryDy=0;exitX=0.5;exitY=1;exitDx=0;exitDy=0;" parent="1" source="XK4Mc1q5ekKsyZJ8U_UK-12" target="XK4Mc1q5ekKsyZJ8U_UK-1" edge="1">
          <mxGeometry width="50" height="50" relative="1" as="geometry">
            <mxPoint x="660" y="290" as="sourcePoint" />
            <mxPoint x="710" y="240" as="targetPoint" />
          </mxGeometry>
        </mxCell>
        <mxCell id="elfq-VPX6zYNHn0ozQoe-16" value="" style="endArrow=none;html=1;rounded=0;entryX=0.5;entryY=1;entryDx=0;entryDy=0;exitX=0.5;exitY=0;exitDx=0;exitDy=0;" parent="1" edge="1">
          <mxGeometry width="50" height="50" relative="1" as="geometry">
            <mxPoint x="810" y="570" as="sourcePoint" />
            <mxPoint x="809.5" y="510" as="targetPoint" />
          </mxGeometry>
        </mxCell>
        <mxCell id="elfq-VPX6zYNHn0ozQoe-19" value="" style="endArrow=none;html=1;rounded=0;entryX=1;entryY=0.5;entryDx=0;entryDy=0;exitX=0;exitY=0.5;exitDx=0;exitDy=0;" parent="1" source="XK4Mc1q5ekKsyZJ8U_UK-42" target="XK4Mc1q5ekKsyZJ8U_UK-47" edge="1">
          <mxGeometry width="50" height="50" relative="1" as="geometry">
            <mxPoint x="860" y="830" as="sourcePoint" />
            <mxPoint x="910" y="780" as="targetPoint" />
          </mxGeometry>
        </mxCell>
        <mxCell id="elfq-VPX6zYNHn0ozQoe-20" value="" style="endArrow=none;html=1;rounded=0;exitX=0;exitY=0;exitDx=0;exitDy=0;" parent="1" source="XK4Mc1q5ekKsyZJ8U_UK-47" target="XK4Mc1q5ekKsyZJ8U_UK-48" edge="1">
          <mxGeometry width="50" height="50" relative="1" as="geometry">
            <mxPoint x="610" y="800" as="sourcePoint" />
            <mxPoint x="880" y="780" as="targetPoint" />
          </mxGeometry>
        </mxCell>
        <mxCell id="elfq-VPX6zYNHn0ozQoe-21" value="" style="endArrow=none;html=1;rounded=0;entryX=1;entryY=0.5;entryDx=0;entryDy=0;exitX=0;exitY=1;exitDx=0;exitDy=0;" parent="1" source="XK4Mc1q5ekKsyZJ8U_UK-47" target="XK4Mc1q5ekKsyZJ8U_UK-49" edge="1">
          <mxGeometry width="50" height="50" relative="1" as="geometry">
            <mxPoint x="860" y="830" as="sourcePoint" />
            <mxPoint x="910" y="780" as="targetPoint" />
          </mxGeometry>
        </mxCell>
        <mxCell id="elfq-VPX6zYNHn0ozQoe-22" value="" style="endArrow=none;html=1;rounded=0;entryX=0;entryY=1;entryDx=0;entryDy=0;exitX=1;exitY=0;exitDx=0;exitDy=0;" parent="1" source="XK4Mc1q5ekKsyZJ8U_UK-42" target="XK4Mc1q5ekKsyZJ8U_UK-46" edge="1">
          <mxGeometry width="50" height="50" relative="1" as="geometry">
            <mxPoint x="860" y="830" as="sourcePoint" />
            <mxPoint x="910" y="780" as="targetPoint" />
          </mxGeometry>
        </mxCell>
        <mxCell id="elfq-VPX6zYNHn0ozQoe-23" value="" style="endArrow=none;html=1;rounded=0;exitX=0;exitY=0;exitDx=0;exitDy=0;entryX=1;entryY=1;entryDx=0;entryDy=0;" parent="1" source="XK4Mc1q5ekKsyZJ8U_UK-44" target="XK4Mc1q5ekKsyZJ8U_UK-42" edge="1">
          <mxGeometry width="50" height="50" relative="1" as="geometry">
            <mxPoint x="860" y="830" as="sourcePoint" />
            <mxPoint x="860" y="820" as="targetPoint" />
          </mxGeometry>
        </mxCell>
        <mxCell id="elfq-VPX6zYNHn0ozQoe-24" value="" style="endArrow=none;html=1;rounded=0;exitX=1;exitY=0;exitDx=0;exitDy=0;" parent="1" source="XK4Mc1q5ekKsyZJ8U_UK-45" edge="1">
          <mxGeometry width="50" height="50" relative="1" as="geometry">
            <mxPoint x="860" y="830" as="sourcePoint" />
            <mxPoint x="760" y="830" as="targetPoint" />
          </mxGeometry>
        </mxCell>
        <mxCell id="elfq-VPX6zYNHn0ozQoe-31" value="" style="endArrow=none;html=1;rounded=0;entryX=0.5;entryY=1;entryDx=0;entryDy=0;exitX=0.5;exitY=0;exitDx=0;exitDy=0;" parent="1" source="XK4Mc1q5ekKsyZJ8U_UK-58" target="XK4Mc1q5ekKsyZJ8U_UK-50" edge="1">
          <mxGeometry width="50" height="50" relative="1" as="geometry">
            <mxPoint x="800" y="930" as="sourcePoint" />
            <mxPoint x="850" y="880" as="targetPoint" />
          </mxGeometry>
        </mxCell>
        <mxCell id="elfq-VPX6zYNHn0ozQoe-39" value="" style="endArrow=none;html=1;rounded=0;entryX=0.25;entryY=1;entryDx=0;entryDy=0;exitX=0.5;exitY=0;exitDx=0;exitDy=0;" parent="1" source="XK4Mc1q5ekKsyZJ8U_UK-67" target="XK4Mc1q5ekKsyZJ8U_UK-64" edge="1">
          <mxGeometry width="50" height="50" relative="1" as="geometry">
            <mxPoint x="1412.5" y="1257.4999999999995" as="sourcePoint" />
            <mxPoint x="1312.5" y="1047.5" as="targetPoint" />
          </mxGeometry>
        </mxCell>
        <mxCell id="elfq-VPX6zYNHn0ozQoe-40" value="" style="endArrow=none;html=1;rounded=0;entryX=0.75;entryY=1;entryDx=0;entryDy=0;exitX=0.5;exitY=0;exitDx=0;exitDy=0;" parent="1" source="XK4Mc1q5ekKsyZJ8U_UK-68" target="XK4Mc1q5ekKsyZJ8U_UK-64" edge="1">
          <mxGeometry width="50" height="50" relative="1" as="geometry">
            <mxPoint x="1262.5" y="1097.5" as="sourcePoint" />
            <mxPoint x="1312.5" y="1047.5" as="targetPoint" />
          </mxGeometry>
        </mxCell>
        <mxCell id="52x9yhvEbFXOKA9_f1Lk-1" value="Compone" style="shape=rhombus;perimeter=rhombusPerimeter;whiteSpace=wrap;html=1;align=center;fillColor=#EA6B66;" parent="1" vertex="1">
          <mxGeometry x="1000" y="20" width="120" height="60" as="geometry" />
        </mxCell>
        <mxCell id="52x9yhvEbFXOKA9_f1Lk-2" value="" style="endArrow=none;html=1;rounded=0;entryX=1;entryY=0.5;entryDx=0;entryDy=0;exitX=0;exitY=0.5;exitDx=0;exitDy=0;" parent="1" edge="1">
          <mxGeometry width="50" height="50" relative="1" as="geometry">
            <mxPoint x="1000" y="49.91" as="sourcePoint" />
            <mxPoint x="840" y="49.41" as="targetPoint" />
          </mxGeometry>
        </mxCell>
        <mxCell id="52x9yhvEbFXOKA9_f1Lk-3" value="" style="endArrow=none;html=1;rounded=0;entryX=1;entryY=0.5;entryDx=0;entryDy=0;exitX=0;exitY=0.5;exitDx=0;exitDy=0;" parent="1" edge="1">
          <mxGeometry width="50" height="50" relative="1" as="geometry">
            <mxPoint x="1280" y="49.91" as="sourcePoint" />
            <mxPoint x="1120" y="49.41" as="targetPoint" />
          </mxGeometry>
        </mxCell>
        <mxCell id="52x9yhvEbFXOKA9_f1Lk-5" value="Reside" style="shape=rhombus;perimeter=rhombusPerimeter;whiteSpace=wrap;html=1;align=center;fillColor=#EA6B66;" parent="1" vertex="1">
          <mxGeometry x="1540" y="20" width="120" height="60" as="geometry" />
        </mxCell>
        <mxCell id="52x9yhvEbFXOKA9_f1Lk-6" value="" style="endArrow=none;html=1;rounded=0;entryX=1;entryY=0.5;entryDx=0;entryDy=0;exitX=0;exitY=0.5;exitDx=0;exitDy=0;" parent="1" edge="1">
          <mxGeometry width="50" height="50" relative="1" as="geometry">
            <mxPoint x="1540" y="49.91" as="sourcePoint" />
            <mxPoint x="1380" y="49.41" as="targetPoint" />
          </mxGeometry>
        </mxCell>
        <mxCell id="52x9yhvEbFXOKA9_f1Lk-7" value="Especie" style="whiteSpace=wrap;html=1;align=center;fillColor=#97D077;" parent="1" vertex="1">
          <mxGeometry x="1820" y="30" width="100" height="40" as="geometry" />
        </mxCell>
        <mxCell id="52x9yhvEbFXOKA9_f1Lk-8" value="&lt;u&gt;DenCientífica&lt;/u&gt;" style="ellipse;whiteSpace=wrap;html=1;align=center;fillColor=#FFD966;" parent="1" vertex="1">
          <mxGeometry x="1660" y="-30" width="100" height="40" as="geometry" />
        </mxCell>
        <mxCell id="52x9yhvEbFXOKA9_f1Lk-9" value="DenVulgar" style="ellipse;whiteSpace=wrap;html=1;align=center;fillColor=#FFD966;" parent="1" vertex="1">
          <mxGeometry x="1960" y="-30" width="100" height="40" as="geometry" />
        </mxCell>
        <mxCell id="52x9yhvEbFXOKA9_f1Lk-10" value="" style="endArrow=none;html=1;rounded=0;entryX=0;entryY=0;entryDx=0;entryDy=0;exitX=0.57;exitY=1;exitDx=0;exitDy=0;exitPerimeter=0;" parent="1" source="52x9yhvEbFXOKA9_f1Lk-8" target="52x9yhvEbFXOKA9_f1Lk-7" edge="1">
          <mxGeometry width="50" height="50" relative="1" as="geometry">
            <mxPoint x="1990" y="200" as="sourcePoint" />
            <mxPoint x="2040" y="150" as="targetPoint" />
          </mxGeometry>
        </mxCell>
        <mxCell id="52x9yhvEbFXOKA9_f1Lk-11" value="" style="endArrow=none;html=1;rounded=0;entryX=1;entryY=0;entryDx=0;entryDy=0;exitX=0.5;exitY=1;exitDx=0;exitDy=0;" parent="1" source="52x9yhvEbFXOKA9_f1Lk-9" target="52x9yhvEbFXOKA9_f1Lk-7" edge="1">
          <mxGeometry width="50" height="50" relative="1" as="geometry">
            <mxPoint x="1990" y="200" as="sourcePoint" />
            <mxPoint x="2040" y="150" as="targetPoint" />
          </mxGeometry>
        </mxCell>
        <mxCell id="52x9yhvEbFXOKA9_f1Lk-12" value="" style="endArrow=none;html=1;rounded=0;entryX=1;entryY=0.5;entryDx=0;entryDy=0;exitX=0;exitY=0.5;exitDx=0;exitDy=0;" parent="1" edge="1">
          <mxGeometry width="50" height="50" relative="1" as="geometry">
            <mxPoint x="1820" y="49.91" as="sourcePoint" />
            <mxPoint x="1660" y="49.41" as="targetPoint" />
          </mxGeometry>
        </mxCell>
        <mxCell id="52x9yhvEbFXOKA9_f1Lk-14" value="" style="endArrow=none;html=1;rounded=0;entryX=0;entryY=0;entryDx=0;entryDy=0;exitX=1;exitY=1;exitDx=0;exitDy=0;" parent="1" source="XK4Mc1q5ekKsyZJ8U_UK-43" target="XK4Mc1q5ekKsyZJ8U_UK-42" edge="1">
          <mxGeometry width="50" height="50" relative="1" as="geometry">
            <mxPoint x="715.1455206038277" y="754.2255678634538" as="sourcePoint" />
            <mxPoint x="810" y="820" as="targetPoint" />
          </mxGeometry>
        </mxCell>
        <mxCell id="52x9yhvEbFXOKA9_f1Lk-18" value="" style="endArrow=none;html=1;rounded=0;entryX=0.5;entryY=1;entryDx=0;entryDy=0;exitX=0.5;exitY=0;exitDx=0;exitDy=0;" parent="1" edge="1">
          <mxGeometry width="50" height="50" relative="1" as="geometry">
            <mxPoint x="809.91" y="790" as="sourcePoint" />
            <mxPoint x="809.41" y="730" as="targetPoint" />
          </mxGeometry>
        </mxCell>
        <mxCell id="52x9yhvEbFXOKA9_f1Lk-22" value="" style="endArrow=none;html=1;rounded=0;exitX=0.5;exitY=0;exitDx=0;exitDy=0;entryX=0.5;entryY=1;entryDx=0;entryDy=0;" parent="1" source="XK4Mc1q5ekKsyZJ8U_UK-28" edge="1">
          <mxGeometry width="50" height="50" relative="1" as="geometry">
            <mxPoint x="2000" y="300" as="sourcePoint" />
            <mxPoint x="2085" y="210" as="targetPoint" />
          </mxGeometry>
        </mxCell>
        <mxCell id="52x9yhvEbFXOKA9_f1Lk-23" value="" style="endArrow=none;html=1;rounded=0;exitX=0.5;exitY=0;exitDx=0;exitDy=0;entryX=0.5;entryY=0;entryDx=0;entryDy=0;" parent="1" source="XK4Mc1q5ekKsyZJ8U_UK-27" target="XK4Mc1q5ekKsyZJ8U_UK-25" edge="1">
          <mxGeometry width="50" height="50" relative="1" as="geometry">
            <mxPoint x="2020" y="300" as="sourcePoint" />
            <mxPoint x="2095" y="220" as="targetPoint" />
          </mxGeometry>
        </mxCell>
        <mxCell id="52x9yhvEbFXOKA9_f1Lk-24" value="" style="endArrow=none;html=1;rounded=0;entryX=0.008;entryY=0.044;entryDx=0;entryDy=0;entryPerimeter=0;exitX=0;exitY=0.5;exitDx=0;exitDy=0;" parent="1" source="XK4Mc1q5ekKsyZJ8U_UK-26" target="XK4Mc1q5ekKsyZJ8U_UK-25" edge="1">
          <mxGeometry width="50" height="50" relative="1" as="geometry">
            <mxPoint x="2060" y="330" as="sourcePoint" />
            <mxPoint x="2110" y="280" as="targetPoint" />
          </mxGeometry>
        </mxCell>
        <mxCell id="52x9yhvEbFXOKA9_f1Lk-25" value="" style="endArrow=none;html=1;rounded=0;entryX=0.25;entryY=1;entryDx=0;entryDy=0;exitX=0.5;exitY=0;exitDx=0;exitDy=0;" parent="1" target="XK4Mc1q5ekKsyZJ8U_UK-28" edge="1">
          <mxGeometry width="50" height="50" relative="1" as="geometry">
            <mxPoint x="1930" y="380" as="sourcePoint" />
            <mxPoint x="2110" y="280" as="targetPoint" />
          </mxGeometry>
        </mxCell>
        <mxCell id="52x9yhvEbFXOKA9_f1Lk-26" value="" style="endArrow=none;html=1;rounded=0;entryX=0.75;entryY=1;entryDx=0;entryDy=0;exitX=0.5;exitY=0;exitDx=0;exitDy=0;" parent="1" source="XK4Mc1q5ekKsyZJ8U_UK-33" target="XK4Mc1q5ekKsyZJ8U_UK-28" edge="1">
          <mxGeometry width="50" height="50" relative="1" as="geometry">
            <mxPoint x="2060" y="330" as="sourcePoint" />
            <mxPoint x="2110" y="280" as="targetPoint" />
          </mxGeometry>
        </mxCell>
        <mxCell id="52x9yhvEbFXOKA9_f1Lk-27" value="" style="endArrow=none;html=1;rounded=0;entryX=0.25;entryY=1;entryDx=0;entryDy=0;" parent="1" target="XK4Mc1q5ekKsyZJ8U_UK-27" edge="1">
          <mxGeometry width="50" height="50" relative="1" as="geometry">
            <mxPoint x="2190" y="380" as="sourcePoint" />
            <mxPoint x="2225" y="330" as="targetPoint" />
          </mxGeometry>
        </mxCell>
        <mxCell id="52x9yhvEbFXOKA9_f1Lk-28" value="" style="endArrow=none;html=1;rounded=0;entryX=0.75;entryY=1;entryDx=0;entryDy=0;exitX=0.5;exitY=0;exitDx=0;exitDy=0;" parent="1" edge="1">
          <mxGeometry width="50" height="50" relative="1" as="geometry">
            <mxPoint x="2305" y="380" as="sourcePoint" />
            <mxPoint x="2270" y="330" as="targetPoint" />
          </mxGeometry>
        </mxCell>
        <mxCell id="52x9yhvEbFXOKA9_f1Lk-29" value="" style="endArrow=none;html=1;rounded=0;entryX=0;entryY=1;entryDx=0;entryDy=0;exitX=0.5;exitY=0;exitDx=0;exitDy=0;" parent="1" source="XK4Mc1q5ekKsyZJ8U_UK-35" target="XK4Mc1q5ekKsyZJ8U_UK-34" edge="1">
          <mxGeometry width="50" height="50" relative="1" as="geometry">
            <mxPoint x="2250" y="470" as="sourcePoint" />
            <mxPoint x="2275" y="420" as="targetPoint" />
          </mxGeometry>
        </mxCell>
        <mxCell id="52x9yhvEbFXOKA9_f1Lk-30" value="" style="endArrow=none;html=1;rounded=0;entryX=0.5;entryY=1;entryDx=0;entryDy=0;exitX=0.5;exitY=0;exitDx=0;exitDy=0;" parent="1" source="XK4Mc1q5ekKsyZJ8U_UK-37" target="XK4Mc1q5ekKsyZJ8U_UK-34" edge="1">
          <mxGeometry width="50" height="50" relative="1" as="geometry">
            <mxPoint x="2060" y="330" as="sourcePoint" />
            <mxPoint x="2110" y="280" as="targetPoint" />
          </mxGeometry>
        </mxCell>
        <mxCell id="52x9yhvEbFXOKA9_f1Lk-31" value="" style="endArrow=none;html=1;rounded=0;entryX=1;entryY=1;entryDx=0;entryDy=0;exitX=0.5;exitY=0;exitDx=0;exitDy=0;" parent="1" source="XK4Mc1q5ekKsyZJ8U_UK-36" target="XK4Mc1q5ekKsyZJ8U_UK-34" edge="1">
          <mxGeometry width="50" height="50" relative="1" as="geometry">
            <mxPoint x="2060" y="330" as="sourcePoint" />
            <mxPoint x="2110" y="280" as="targetPoint" />
          </mxGeometry>
        </mxCell>
        <mxCell id="52x9yhvEbFXOKA9_f1Lk-32" value="" style="endArrow=none;html=1;rounded=0;entryX=1;entryY=0.5;entryDx=0;entryDy=0;exitX=0;exitY=0.5;exitDx=0;exitDy=0;" parent="1" edge="1">
          <mxGeometry width="50" height="50" relative="1" as="geometry">
            <mxPoint x="2450" y="310.02" as="sourcePoint" />
            <mxPoint x="2290" y="309.52" as="targetPoint" />
          </mxGeometry>
        </mxCell>
        <mxCell id="52x9yhvEbFXOKA9_f1Lk-33" value="" style="endArrow=none;html=1;rounded=0;entryX=0.5;entryY=0;entryDx=0;entryDy=0;exitX=1;exitY=0.5;exitDx=0;exitDy=0;" parent="1" source="52x9yhvEbFXOKA9_f1Lk-7" target="XK4Mc1q5ekKsyZJ8U_UK-39" edge="1">
          <mxGeometry width="50" height="50" relative="1" as="geometry">
            <mxPoint x="1920" y="100" as="sourcePoint" />
            <mxPoint x="1880" y="270" as="targetPoint" />
            <Array as="points">
              <mxPoint x="2510" y="50" />
            </Array>
          </mxGeometry>
        </mxCell>
        <mxCell id="52x9yhvEbFXOKA9_f1Lk-34" value="" style="endArrow=none;html=1;rounded=0;entryX=0;entryY=0.5;entryDx=0;entryDy=0;exitX=0.75;exitY=1;exitDx=0;exitDy=0;" parent="1" source="52x9yhvEbFXOKA9_f1Lk-7" target="XK4Mc1q5ekKsyZJ8U_UK-25" edge="1">
          <mxGeometry width="50" height="50" relative="1" as="geometry">
            <mxPoint x="1895" y="120" as="sourcePoint" />
            <mxPoint x="1930" y="340" as="targetPoint" />
            <Array as="points">
              <mxPoint x="1895" y="160" />
              <mxPoint x="2100" y="160" />
            </Array>
          </mxGeometry>
        </mxCell>
        <mxCell id="52x9yhvEbFXOKA9_f1Lk-35" value="" style="endArrow=none;html=1;rounded=0;entryX=0.25;entryY=0;entryDx=0;entryDy=0;exitX=0.5;exitY=1;exitDx=0;exitDy=0;" parent="1" source="XK4Mc1q5ekKsyZJ8U_UK-18" target="XK4Mc1q5ekKsyZJ8U_UK-17" edge="1">
          <mxGeometry width="50" height="50" relative="1" as="geometry">
            <mxPoint x="1690" y="410" as="sourcePoint" />
            <mxPoint x="1740" y="360" as="targetPoint" />
          </mxGeometry>
        </mxCell>
        <mxCell id="52x9yhvEbFXOKA9_f1Lk-36" value="" style="endArrow=none;html=1;rounded=0;entryX=0.75;entryY=0;entryDx=0;entryDy=0;exitX=0.5;exitY=1;exitDx=0;exitDy=0;" parent="1" source="XK4Mc1q5ekKsyZJ8U_UK-19" target="XK4Mc1q5ekKsyZJ8U_UK-17" edge="1">
          <mxGeometry width="50" height="50" relative="1" as="geometry">
            <mxPoint x="1690" y="410" as="sourcePoint" />
            <mxPoint x="1740" y="360" as="targetPoint" />
          </mxGeometry>
        </mxCell>
        <mxCell id="52x9yhvEbFXOKA9_f1Lk-41" value="Investiga" style="shape=rhombus;perimeter=rhombusPerimeter;whiteSpace=wrap;html=1;align=center;fillColor=#EA6B66;" parent="1" vertex="1">
          <mxGeometry x="1540" y="230" width="120" height="60" as="geometry" />
        </mxCell>
        <mxCell id="52x9yhvEbFXOKA9_f1Lk-43" value="Especialidad" style="ellipse;whiteSpace=wrap;html=1;align=center;fillColor=#FFD966;" parent="1" vertex="1">
          <mxGeometry x="790" y="1080" width="100" height="40" as="geometry" />
        </mxCell>
        <mxCell id="52x9yhvEbFXOKA9_f1Lk-44" value="" style="endArrow=none;html=1;rounded=0;entryX=0;entryY=1;entryDx=0;entryDy=0;exitX=0.5;exitY=0;exitDx=0;exitDy=0;" parent="1" source="52x9yhvEbFXOKA9_f1Lk-43" target="XK4Mc1q5ekKsyZJ8U_UK-52" edge="1">
          <mxGeometry width="50" height="50" relative="1" as="geometry">
            <mxPoint x="890" y="1080" as="sourcePoint" />
            <mxPoint x="889.5799999999999" y="1040" as="targetPoint" />
          </mxGeometry>
        </mxCell>
        <mxCell id="52x9yhvEbFXOKA9_f1Lk-45" value="tipoVehículo" style="ellipse;whiteSpace=wrap;html=1;align=center;fillColor=#FFD966;" parent="1" vertex="1">
          <mxGeometry x="1380" y="1070" width="100" height="40" as="geometry" />
        </mxCell>
        <mxCell id="52x9yhvEbFXOKA9_f1Lk-47" value="&lt;u&gt;Matrícula&lt;/u&gt;" style="ellipse;whiteSpace=wrap;html=1;align=center;fillColor=#FFD966;" parent="1" vertex="1">
          <mxGeometry x="1527.5" y="1070" width="100" height="40" as="geometry" />
        </mxCell>
        <mxCell id="52x9yhvEbFXOKA9_f1Lk-50" value="" style="endArrow=none;html=1;rounded=0;entryX=0;entryY=1;entryDx=0;entryDy=0;exitX=0.5;exitY=0;exitDx=0;exitDy=0;" parent="1" source="gG0_Y2ebSLgO2bjYxy1f-2" target="XK4Mc1q5ekKsyZJ8U_UK-51" edge="1">
          <mxGeometry width="50" height="50" relative="1" as="geometry">
            <mxPoint x="610" y="1080" as="sourcePoint" />
            <mxPoint x="689.71" y="1040" as="targetPoint" />
          </mxGeometry>
        </mxCell>
        <mxCell id="52x9yhvEbFXOKA9_f1Lk-51" value="Utiliza" style="shape=rhombus;perimeter=rhombusPerimeter;whiteSpace=wrap;html=1;align=center;fillColor=#EA6B66;" parent="1" vertex="1">
          <mxGeometry x="1230" y="990" width="120" height="60" as="geometry" />
        </mxCell>
        <mxCell id="52x9yhvEbFXOKA9_f1Lk-54" value="Vehículo" style="whiteSpace=wrap;html=1;align=center;fillColor=#97D077;" parent="1" vertex="1">
          <mxGeometry x="1450" y="1000" width="100" height="40" as="geometry" />
        </mxCell>
        <mxCell id="52x9yhvEbFXOKA9_f1Lk-55" value="" style="rounded=0;whiteSpace=wrap;html=1;fillColor=none;strokeColor=#000000;" parent="1" vertex="1">
          <mxGeometry x="1460" y="1007.5" width="80" height="25" as="geometry" />
        </mxCell>
        <mxCell id="52x9yhvEbFXOKA9_f1Lk-56" value="" style="endArrow=none;html=1;rounded=0;entryX=1;entryY=0.5;entryDx=0;entryDy=0;exitX=0;exitY=0.5;exitDx=0;exitDy=0;" parent="1" edge="1">
          <mxGeometry width="50" height="50" relative="1" as="geometry">
            <mxPoint x="1230" y="1020" as="sourcePoint" />
            <mxPoint x="1130" y="1020" as="targetPoint" />
          </mxGeometry>
        </mxCell>
        <mxCell id="52x9yhvEbFXOKA9_f1Lk-57" value="" style="endArrow=none;html=1;rounded=0;entryX=0.25;entryY=1;entryDx=0;entryDy=0;exitX=0.5;exitY=0;exitDx=0;exitDy=0;" parent="1" source="52x9yhvEbFXOKA9_f1Lk-45" target="52x9yhvEbFXOKA9_f1Lk-54" edge="1">
          <mxGeometry width="50" height="50" relative="1" as="geometry">
            <mxPoint x="1330" y="1180" as="sourcePoint" />
            <mxPoint x="1380" y="1130" as="targetPoint" />
          </mxGeometry>
        </mxCell>
        <mxCell id="52x9yhvEbFXOKA9_f1Lk-58" value="" style="endArrow=none;html=1;rounded=0;entryX=0.75;entryY=1;entryDx=0;entryDy=0;exitX=0.5;exitY=0;exitDx=0;exitDy=0;" parent="1" source="52x9yhvEbFXOKA9_f1Lk-47" target="52x9yhvEbFXOKA9_f1Lk-54" edge="1">
          <mxGeometry width="50" height="50" relative="1" as="geometry">
            <mxPoint x="1330" y="1180" as="sourcePoint" />
            <mxPoint x="1380" y="1130" as="targetPoint" />
          </mxGeometry>
        </mxCell>
        <mxCell id="52x9yhvEbFXOKA9_f1Lk-61" value="" style="endArrow=none;html=1;rounded=0;entryX=1;entryY=0.5;entryDx=0;entryDy=0;exitX=0;exitY=0.5;exitDx=0;exitDy=0;" parent="1" source="XK4Mc1q5ekKsyZJ8U_UK-64" target="XK4Mc1q5ekKsyZJ8U_UK-65" edge="1">
          <mxGeometry width="50" height="50" relative="1" as="geometry">
            <mxPoint x="1452.5" y="1196.91" as="sourcePoint" />
            <mxPoint x="1372.5" y="1207.5" as="targetPoint" />
          </mxGeometry>
        </mxCell>
        <mxCell id="52x9yhvEbFXOKA9_f1Lk-62" value="" style="endArrow=none;html=1;rounded=0;entryX=0.5;entryY=1;entryDx=0;entryDy=0;exitX=0.5;exitY=0;exitDx=0;exitDy=0;" parent="1" source="XK4Mc1q5ekKsyZJ8U_UK-66" target="XK4Mc1q5ekKsyZJ8U_UK-64" edge="1">
          <mxGeometry width="50" height="50" relative="1" as="geometry">
            <mxPoint x="1492.5" y="1067.5" as="sourcePoint" />
            <mxPoint x="1542.5" y="1017.5" as="targetPoint" />
          </mxGeometry>
        </mxCell>
        <mxCell id="52x9yhvEbFXOKA9_f1Lk-63" value="" style="endArrow=none;html=1;rounded=0;entryX=0.5;entryY=1;entryDx=0;entryDy=0;exitX=0;exitY=0.5;exitDx=0;exitDy=0;" parent="1" source="XK4Mc1q5ekKsyZJ8U_UK-65" target="XK4Mc1q5ekKsyZJ8U_UK-51" edge="1">
          <mxGeometry width="50" height="50" relative="1" as="geometry">
            <mxPoint x="950" y="1070" as="sourcePoint" />
            <mxPoint x="1000" y="1020" as="targetPoint" />
            <Array as="points">
              <mxPoint x="690" y="1210" />
            </Array>
          </mxGeometry>
        </mxCell>
        <mxCell id="52x9yhvEbFXOKA9_f1Lk-64" value="Vigila" style="shape=rhombus;perimeter=rhombusPerimeter;whiteSpace=wrap;html=1;align=center;fillColor=#EA6B66;" parent="1" vertex="1">
          <mxGeometry x="1000" y="230" width="120" height="60" as="geometry" />
        </mxCell>
        <mxCell id="52x9yhvEbFXOKA9_f1Lk-65" value="Conserva" style="shape=rhombus;perimeter=rhombusPerimeter;whiteSpace=wrap;html=1;align=center;fillColor=#EA6B66;" parent="1" vertex="1">
          <mxGeometry x="1270" y="230" width="120" height="60" as="geometry" />
        </mxCell>
        <mxCell id="52x9yhvEbFXOKA9_f1Lk-66" value="" style="endArrow=none;html=1;rounded=0;exitX=0.5;exitY=1;exitDx=0;exitDy=0;entryX=0.5;entryY=1;entryDx=0;entryDy=0;" parent="1" source="XK4Mc1q5ekKsyZJ8U_UK-53" target="52x9yhvEbFXOKA9_f1Lk-64" edge="1">
          <mxGeometry width="50" height="50" relative="1" as="geometry">
            <mxPoint x="1190" y="920" as="sourcePoint" />
            <mxPoint x="1640" y="1090" as="targetPoint" />
            <Array as="points">
              <mxPoint x="1080" y="1140" />
              <mxPoint x="1660" y="1140" />
              <mxPoint x="1660" y="610" />
              <mxPoint x="1060" y="610" />
            </Array>
          </mxGeometry>
        </mxCell>
        <mxCell id="52x9yhvEbFXOKA9_f1Lk-67" value="" style="endArrow=none;html=1;rounded=0;entryX=0.5;entryY=1;entryDx=0;entryDy=0;exitX=0.5;exitY=1;exitDx=0;exitDy=0;" parent="1" source="52x9yhvEbFXOKA9_f1Lk-65" target="XK4Mc1q5ekKsyZJ8U_UK-52" edge="1">
          <mxGeometry width="50" height="50" relative="1" as="geometry">
            <mxPoint x="1190" y="1110" as="sourcePoint" />
            <mxPoint x="1240" y="1060" as="targetPoint" />
            <Array as="points">
              <mxPoint x="1330" y="540" />
              <mxPoint x="1720" y="540" />
              <mxPoint x="1720" y="1170" />
              <mxPoint x="930" y="1170" />
            </Array>
          </mxGeometry>
        </mxCell>
        <mxCell id="52x9yhvEbFXOKA9_f1Lk-69" value="" style="endArrow=none;html=1;rounded=0;exitX=1;exitY=0.5;exitDx=0;exitDy=0;entryX=0.5;entryY=1;entryDx=0;entryDy=0;" parent="1" source="XK4Mc1q5ekKsyZJ8U_UK-64" target="52x9yhvEbFXOKA9_f1Lk-41" edge="1">
          <mxGeometry width="50" height="50" relative="1" as="geometry">
            <mxPoint x="1190" y="1120" as="sourcePoint" />
            <mxPoint x="1240" y="1070" as="targetPoint" />
            <Array as="points">
              <mxPoint x="1810" y="1208" />
              <mxPoint x="1810" y="480" />
              <mxPoint x="1600" y="480" />
            </Array>
          </mxGeometry>
        </mxCell>
        <mxCell id="52x9yhvEbFXOKA9_f1Lk-70" value="" style="endArrow=none;html=1;rounded=0;entryX=0.25;entryY=1;entryDx=0;entryDy=0;exitX=0.5;exitY=0;exitDx=0;exitDy=0;" parent="1" source="52x9yhvEbFXOKA9_f1Lk-64" target="XK4Mc1q5ekKsyZJ8U_UK-17" edge="1">
          <mxGeometry width="50" height="50" relative="1" as="geometry">
            <mxPoint x="1380" y="320" as="sourcePoint" />
            <mxPoint x="1430" y="270" as="targetPoint" />
            <Array as="points">
              <mxPoint x="1060" y="160" />
              <mxPoint x="1305" y="160" />
            </Array>
          </mxGeometry>
        </mxCell>
        <mxCell id="52x9yhvEbFXOKA9_f1Lk-71" value="" style="endArrow=none;html=1;rounded=0;entryX=0.5;entryY=1;entryDx=0;entryDy=0;exitX=0.5;exitY=0;exitDx=0;exitDy=0;" parent="1" source="52x9yhvEbFXOKA9_f1Lk-65" target="XK4Mc1q5ekKsyZJ8U_UK-17" edge="1">
          <mxGeometry width="50" height="50" relative="1" as="geometry">
            <mxPoint x="1380" y="320" as="sourcePoint" />
            <mxPoint x="1430" y="270" as="targetPoint" />
          </mxGeometry>
        </mxCell>
        <mxCell id="52x9yhvEbFXOKA9_f1Lk-72" value="" style="endArrow=none;html=1;rounded=0;entryX=0.5;entryY=1;entryDx=0;entryDy=0;exitX=0.5;exitY=0;exitDx=0;exitDy=0;" parent="1" source="52x9yhvEbFXOKA9_f1Lk-41" target="52x9yhvEbFXOKA9_f1Lk-7" edge="1">
          <mxGeometry width="50" height="50" relative="1" as="geometry">
            <mxPoint x="1380" y="320" as="sourcePoint" />
            <mxPoint x="1430" y="270" as="targetPoint" />
            <Array as="points">
              <mxPoint x="1600" y="160" />
              <mxPoint x="1870" y="160" />
            </Array>
          </mxGeometry>
        </mxCell>
        <mxCell id="gG0_Y2ebSLgO2bjYxy1f-1" value="" style="rounded=0;whiteSpace=wrap;html=1;fillColor=none;" parent="1" vertex="1">
          <mxGeometry x="1457.5" y="1193.75" width="90" height="27.5" as="geometry" />
        </mxCell>
        <mxCell id="gG0_Y2ebSLgO2bjYxy1f-2" value="Titulación" style="ellipse;shape=doubleEllipse;margin=3;whiteSpace=wrap;html=1;align=center;fillColor=#FFD966;strokeColor=#d6b656;" parent="1" vertex="1">
          <mxGeometry x="560" y="1080" width="100" height="40" as="geometry" />
        </mxCell>
        <mxCell id="gG0_Y2ebSLgO2bjYxy1f-4" value="Visitante" style="whiteSpace=wrap;html=1;align=center;fillColor=#97D077;" parent="1" vertex="1">
          <mxGeometry x="250" y="350" width="100" height="40" as="geometry" />
        </mxCell>
        <mxCell id="gG0_Y2ebSLgO2bjYxy1f-39" value="" style="endArrow=none;html=1;rounded=0;exitX=0.5;exitY=0;exitDx=0;exitDy=0;" parent="1" source="gG0_Y2ebSLgO2bjYxy1f-40" edge="1">
          <mxGeometry width="50" height="50" relative="1" as="geometry">
            <mxPoint x="815" y="150" as="sourcePoint" />
            <mxPoint x="810" y="70" as="targetPoint" />
          </mxGeometry>
        </mxCell>
        <mxCell id="gG0_Y2ebSLgO2bjYxy1f-40" value="Está" style="shape=rhombus;perimeter=rhombusPerimeter;whiteSpace=wrap;html=1;align=center;fillColor=#EA6B66;" parent="1" vertex="1">
          <mxGeometry x="750" y="230" width="120" height="60" as="geometry" />
        </mxCell>
        <mxCell id="gG0_Y2ebSLgO2bjYxy1f-42" value="" style="endArrow=none;html=1;rounded=0;entryX=0.5;entryY=1;entryDx=0;entryDy=0;exitX=0.5;exitY=0;exitDx=0;exitDy=0;" parent="1" edge="1">
          <mxGeometry width="50" height="50" relative="1" as="geometry">
            <mxPoint x="810.5" y="350" as="sourcePoint" />
            <mxPoint x="810" y="290" as="targetPoint" />
          </mxGeometry>
        </mxCell>
        <mxCell id="gG0_Y2ebSLgO2bjYxy1f-43" value="" style="endArrow=none;html=1;rounded=0;entryX=0.5;entryY=1;entryDx=0;entryDy=0;exitX=0.5;exitY=0;exitDx=0;exitDy=0;" parent="1" source="XK4Mc1q5ekKsyZJ8U_UK-57" edge="1">
          <mxGeometry width="50" height="50" relative="1" as="geometry">
            <mxPoint x="810.5" y="450" as="sourcePoint" />
            <mxPoint x="810" y="390" as="targetPoint" />
          </mxGeometry>
        </mxCell>
        <mxCell id="gG0_Y2ebSLgO2bjYxy1f-44" value="" style="endArrow=none;html=1;rounded=0;entryX=0.5;entryY=1;entryDx=0;entryDy=0;exitX=0.5;exitY=0;exitDx=0;exitDy=0;" parent="1" source="XK4Mc1q5ekKsyZJ8U_UK-40" edge="1">
          <mxGeometry width="50" height="50" relative="1" as="geometry">
            <mxPoint x="810" y="680" as="sourcePoint" />
            <mxPoint x="810" y="610" as="targetPoint" />
          </mxGeometry>
        </mxCell>
        <mxCell id="gG0_Y2ebSLgO2bjYxy1f-45" value="" style="endArrow=none;html=1;rounded=0;entryX=0.5;entryY=1;entryDx=0;entryDy=0;exitX=0.5;exitY=0;exitDx=0;exitDy=0;" parent="1" edge="1">
          <mxGeometry width="50" height="50" relative="1" as="geometry">
            <mxPoint x="810.0799999999999" y="890" as="sourcePoint" />
            <mxPoint x="809.5799999999999" y="830" as="targetPoint" />
          </mxGeometry>
        </mxCell>
        <mxCell id="gG0_Y2ebSLgO2bjYxy1f-46" value="" style="endArrow=none;html=1;rounded=0;entryX=0.5;entryY=0;entryDx=0;entryDy=0;exitX=0.313;exitY=0.847;exitDx=0;exitDy=0;exitPerimeter=0;" parent="1" source="XK4Mc1q5ekKsyZJ8U_UK-9" target="XK4Mc1q5ekKsyZJ8U_UK-50" edge="1">
          <mxGeometry width="50" height="50" relative="1" as="geometry">
            <mxPoint x="820.0799999999999" y="900" as="sourcePoint" />
            <mxPoint x="819.5799999999999" y="840" as="targetPoint" />
          </mxGeometry>
        </mxCell>
        <mxCell id="gG0_Y2ebSLgO2bjYxy1f-47" value="" style="endArrow=none;html=1;rounded=0;entryX=0.5;entryY=0;entryDx=0;entryDy=0;exitX=0.7;exitY=0.66;exitDx=0;exitDy=0;exitPerimeter=0;" parent="1" source="XK4Mc1q5ekKsyZJ8U_UK-9" target="XK4Mc1q5ekKsyZJ8U_UK-51" edge="1">
          <mxGeometry width="50" height="50" relative="1" as="geometry">
            <mxPoint x="800" y="920" as="sourcePoint" />
            <mxPoint x="510" y="1010" as="targetPoint" />
          </mxGeometry>
        </mxCell>
        <mxCell id="gG0_Y2ebSLgO2bjYxy1f-48" value="" style="endArrow=none;html=1;rounded=0;entryX=0.5;entryY=0;entryDx=0;entryDy=0;exitX=0.313;exitY=0.139;exitDx=0;exitDy=0;exitPerimeter=0;" parent="1" source="XK4Mc1q5ekKsyZJ8U_UK-9" target="XK4Mc1q5ekKsyZJ8U_UK-53" edge="1">
          <mxGeometry width="50" height="50" relative="1" as="geometry">
            <mxPoint x="799" y="913" as="sourcePoint" />
            <mxPoint x="510" y="1010" as="targetPoint" />
          </mxGeometry>
        </mxCell>
        <mxCell id="gG0_Y2ebSLgO2bjYxy1f-49" value="" style="endArrow=none;html=1;rounded=0;entryX=0.5;entryY=0;entryDx=0;entryDy=0;exitX=0.654;exitY=0.32;exitDx=0;exitDy=0;exitPerimeter=0;" parent="1" source="XK4Mc1q5ekKsyZJ8U_UK-9" target="XK4Mc1q5ekKsyZJ8U_UK-52" edge="1">
          <mxGeometry width="50" height="50" relative="1" as="geometry">
            <mxPoint x="810" y="928" as="sourcePoint" />
            <mxPoint x="700" y="1010" as="targetPoint" />
          </mxGeometry>
        </mxCell>
        <mxCell id="gG0_Y2ebSLgO2bjYxy1f-51" value="" style="endArrow=none;html=1;rounded=0;entryX=1;entryY=0.5;entryDx=0;entryDy=0;exitX=0;exitY=0.5;exitDx=0;exitDy=0;" parent="1" edge="1">
          <mxGeometry width="50" height="50" relative="1" as="geometry">
            <mxPoint x="1450" y="1019.5" as="sourcePoint" />
            <mxPoint x="1350" y="1019.5" as="targetPoint" />
          </mxGeometry>
        </mxCell>
        <mxCell id="gG0_Y2ebSLgO2bjYxy1f-52" value="Visita" style="shape=rhombus;perimeter=rhombusPerimeter;whiteSpace=wrap;html=1;align=center;fillColor=#EA6B66;" parent="1" vertex="1">
          <mxGeometry x="240" y="230" width="120" height="60" as="geometry" />
        </mxCell>
        <mxCell id="gG0_Y2ebSLgO2bjYxy1f-54" value="" style="endArrow=none;html=1;rounded=0;entryX=0.383;entryY=0.979;entryDx=0;entryDy=0;exitX=0.5;exitY=0;exitDx=0;exitDy=0;entryPerimeter=0;" parent="1" source="gG0_Y2ebSLgO2bjYxy1f-52" target="XK4Mc1q5ekKsyZJ8U_UK-1" edge="1">
          <mxGeometry width="50" height="50" relative="1" as="geometry">
            <mxPoint x="280" y="200" as="sourcePoint" />
            <mxPoint x="330" y="150" as="targetPoint" />
            <Array as="points">
              <mxPoint x="300" y="180" />
              <mxPoint x="780" y="180" />
            </Array>
          </mxGeometry>
        </mxCell>
        <mxCell id="gG0_Y2ebSLgO2bjYxy1f-55" value="" style="endArrow=none;html=1;rounded=0;exitX=0.5;exitY=0;exitDx=0;exitDy=0;entryX=0.1;entryY=1.016;entryDx=0;entryDy=0;entryPerimeter=0;" parent="1" source="gG0_Y2ebSLgO2bjYxy1f-76" target="XK4Mc1q5ekKsyZJ8U_UK-1" edge="1">
          <mxGeometry width="50" height="50" relative="1" as="geometry">
            <mxPoint x="-260" y="230" as="sourcePoint" />
            <mxPoint x="760" y="70" as="targetPoint" />
            <Array as="points">
              <mxPoint x="-230" y="120" />
              <mxPoint x="750" y="120" />
            </Array>
          </mxGeometry>
        </mxCell>
        <mxCell id="gG0_Y2ebSLgO2bjYxy1f-56" value="" style="endArrow=none;html=1;rounded=0;entryX=1;entryY=0.5;entryDx=0;entryDy=0;exitX=0;exitY=0.5;exitDx=0;exitDy=0;" parent="1" edge="1">
          <mxGeometry width="50" height="50" relative="1" as="geometry">
            <mxPoint x="250" y="370.5" as="sourcePoint" />
            <mxPoint x="90" y="370" as="targetPoint" />
          </mxGeometry>
        </mxCell>
        <mxCell id="gG0_Y2ebSLgO2bjYxy1f-57" value="Se aloja" style="shape=rhombus;perimeter=rhombusPerimeter;whiteSpace=wrap;html=1;align=center;fillColor=#EA6B66;" parent="1" vertex="1">
          <mxGeometry x="-20" y="340" width="120" height="60" as="geometry" />
        </mxCell>
        <mxCell id="gG0_Y2ebSLgO2bjYxy1f-58" value="Alojamiento" style="whiteSpace=wrap;html=1;align=center;fillColor=#97D077;" parent="1" vertex="1">
          <mxGeometry x="-280" y="350" width="100" height="40" as="geometry" />
        </mxCell>
        <mxCell id="gG0_Y2ebSLgO2bjYxy1f-59" value="" style="endArrow=none;html=1;rounded=0;entryX=1;entryY=0.5;entryDx=0;entryDy=0;exitX=0;exitY=0.5;exitDx=0;exitDy=0;" parent="1" edge="1">
          <mxGeometry width="50" height="50" relative="1" as="geometry">
            <mxPoint x="-20" y="369.97" as="sourcePoint" />
            <mxPoint x="-180" y="369.47" as="targetPoint" />
          </mxGeometry>
        </mxCell>
        <mxCell id="gG0_Y2ebSLgO2bjYxy1f-60" value="" style="endArrow=none;html=1;rounded=0;entryX=0.5;entryY=1;entryDx=0;entryDy=0;exitX=0.5;exitY=0;exitDx=0;exitDy=0;" parent="1" edge="1">
          <mxGeometry width="50" height="50" relative="1" as="geometry">
            <mxPoint x="299.97" y="350" as="sourcePoint" />
            <mxPoint x="299.47" y="290" as="targetPoint" />
          </mxGeometry>
        </mxCell>
        <mxCell id="gG0_Y2ebSLgO2bjYxy1f-62" value="Nombre" style="ellipse;whiteSpace=wrap;html=1;align=center;fillColor=#FFD966;" parent="1" vertex="1">
          <mxGeometry x="370" y="430" width="100" height="40" as="geometry" />
        </mxCell>
        <mxCell id="gG0_Y2ebSLgO2bjYxy1f-63" value="&lt;u&gt;DNI&lt;/u&gt;" style="ellipse;whiteSpace=wrap;html=1;align=center;fillColor=#FFD966;" parent="1" vertex="1">
          <mxGeometry x="120" y="430" width="100" height="40" as="geometry" />
        </mxCell>
        <mxCell id="gG0_Y2ebSLgO2bjYxy1f-64" value="Domicilio" style="ellipse;whiteSpace=wrap;html=1;align=center;fillColor=#FFD966;" parent="1" vertex="1">
          <mxGeometry x="70" y="390" width="100" height="40" as="geometry" />
        </mxCell>
        <mxCell id="gG0_Y2ebSLgO2bjYxy1f-69" value="Profesión" style="ellipse;whiteSpace=wrap;html=1;align=center;fillColor=#FFD966;" parent="1" vertex="1">
          <mxGeometry x="440" y="390" width="100" height="40" as="geometry" />
        </mxCell>
        <mxCell id="gG0_Y2ebSLgO2bjYxy1f-70" value="" style="endArrow=none;html=1;rounded=0;entryX=0;entryY=0.75;entryDx=0;entryDy=0;exitX=0.5;exitY=0;exitDx=0;exitDy=0;" parent="1" source="gG0_Y2ebSLgO2bjYxy1f-64" target="gG0_Y2ebSLgO2bjYxy1f-4" edge="1">
          <mxGeometry width="50" height="50" relative="1" as="geometry">
            <mxPoint x="600" y="580" as="sourcePoint" />
            <mxPoint x="650" y="530" as="targetPoint" />
          </mxGeometry>
        </mxCell>
        <mxCell id="gG0_Y2ebSLgO2bjYxy1f-71" value="" style="endArrow=none;html=1;rounded=0;exitX=0.5;exitY=0;exitDx=0;exitDy=0;" parent="1" source="gG0_Y2ebSLgO2bjYxy1f-63" edge="1">
          <mxGeometry width="50" height="50" relative="1" as="geometry">
            <mxPoint x="600" y="580" as="sourcePoint" />
            <mxPoint x="260" y="390" as="targetPoint" />
          </mxGeometry>
        </mxCell>
        <mxCell id="gG0_Y2ebSLgO2bjYxy1f-72" value="" style="endArrow=none;html=1;rounded=0;exitX=0.5;exitY=0;exitDx=0;exitDy=0;" parent="1" source="gG0_Y2ebSLgO2bjYxy1f-62" edge="1">
          <mxGeometry width="50" height="50" relative="1" as="geometry">
            <mxPoint x="600" y="580" as="sourcePoint" />
            <mxPoint x="340" y="390" as="targetPoint" />
          </mxGeometry>
        </mxCell>
        <mxCell id="gG0_Y2ebSLgO2bjYxy1f-73" value="" style="endArrow=none;html=1;rounded=0;entryX=1;entryY=0.75;entryDx=0;entryDy=0;exitX=0.5;exitY=0;exitDx=0;exitDy=0;" parent="1" source="gG0_Y2ebSLgO2bjYxy1f-69" target="gG0_Y2ebSLgO2bjYxy1f-4" edge="1">
          <mxGeometry width="50" height="50" relative="1" as="geometry">
            <mxPoint x="600" y="580" as="sourcePoint" />
            <mxPoint x="650" y="530" as="targetPoint" />
          </mxGeometry>
        </mxCell>
        <mxCell id="gG0_Y2ebSLgO2bjYxy1f-76" value="Dispone" style="shape=rhombus;perimeter=rhombusPerimeter;whiteSpace=wrap;html=1;align=center;fillColor=#EA6B66;" parent="1" vertex="1">
          <mxGeometry x="-290" y="230" width="120" height="60" as="geometry" />
        </mxCell>
        <mxCell id="gG0_Y2ebSLgO2bjYxy1f-82" value="" style="endArrow=none;html=1;rounded=0;entryX=0.5;entryY=1;entryDx=0;entryDy=0;exitX=0.5;exitY=0;exitDx=0;exitDy=0;" parent="1" edge="1">
          <mxGeometry width="50" height="50" relative="1" as="geometry">
            <mxPoint x="-230" y="350" as="sourcePoint" />
            <mxPoint x="-230" y="290" as="targetPoint" />
          </mxGeometry>
        </mxCell>
        <mxCell id="gG0_Y2ebSLgO2bjYxy1f-83" value="Excursion" style="whiteSpace=wrap;html=1;align=center;fillColor=#97D077;" parent="1" vertex="1">
          <mxGeometry x="-10" y="570" width="100" height="40" as="geometry" />
        </mxCell>
        <mxCell id="gG0_Y2ebSLgO2bjYxy1f-84" value="Asiste" style="shape=rhombus;perimeter=rhombusPerimeter;whiteSpace=wrap;html=1;align=center;fillColor=#EA6B66;" parent="1" vertex="1">
          <mxGeometry x="240" y="450" width="120" height="60" as="geometry" />
        </mxCell>
        <mxCell id="gG0_Y2ebSLgO2bjYxy1f-85" value="Realiza" style="shape=rhombus;perimeter=rhombusPerimeter;whiteSpace=wrap;html=1;align=center;fillColor=#EA6B66;" parent="1" vertex="1">
          <mxGeometry x="-290" y="450" width="120" height="60" as="geometry" />
        </mxCell>
        <mxCell id="gG0_Y2ebSLgO2bjYxy1f-86" value="" style="endArrow=none;html=1;rounded=0;entryX=0.5;entryY=1;entryDx=0;entryDy=0;exitX=0.5;exitY=0;exitDx=0;exitDy=0;" parent="1" edge="1">
          <mxGeometry width="50" height="50" relative="1" as="geometry">
            <mxPoint x="299.58000000000004" y="450" as="sourcePoint" />
            <mxPoint x="299.58000000000004" y="390" as="targetPoint" />
          </mxGeometry>
        </mxCell>
        <mxCell id="gG0_Y2ebSLgO2bjYxy1f-87" value="" style="endArrow=none;html=1;rounded=0;entryX=0.5;entryY=1;entryDx=0;entryDy=0;exitX=0.5;exitY=0;exitDx=0;exitDy=0;" parent="1" edge="1">
          <mxGeometry width="50" height="50" relative="1" as="geometry">
            <mxPoint x="-230.42000000000007" y="450" as="sourcePoint" />
            <mxPoint x="-230.42000000000007" y="390" as="targetPoint" />
          </mxGeometry>
        </mxCell>
        <mxCell id="gG0_Y2ebSLgO2bjYxy1f-88" value="" style="endArrow=none;html=1;rounded=0;entryX=0.5;entryY=1;entryDx=0;entryDy=0;exitX=0;exitY=0.5;exitDx=0;exitDy=0;" parent="1" source="gG0_Y2ebSLgO2bjYxy1f-83" target="gG0_Y2ebSLgO2bjYxy1f-85" edge="1">
          <mxGeometry width="50" height="50" relative="1" as="geometry">
            <mxPoint x="200" y="510" as="sourcePoint" />
            <mxPoint x="250" y="460" as="targetPoint" />
            <Array as="points">
              <mxPoint x="-230" y="590" />
            </Array>
          </mxGeometry>
        </mxCell>
        <mxCell id="gG0_Y2ebSLgO2bjYxy1f-89" value="" style="endArrow=none;html=1;rounded=0;entryX=0.5;entryY=1;entryDx=0;entryDy=0;exitX=1;exitY=0.5;exitDx=0;exitDy=0;" parent="1" source="gG0_Y2ebSLgO2bjYxy1f-83" target="gG0_Y2ebSLgO2bjYxy1f-84" edge="1">
          <mxGeometry width="50" height="50" relative="1" as="geometry">
            <mxPoint x="200" y="510" as="sourcePoint" />
            <mxPoint x="250" y="460" as="targetPoint" />
            <Array as="points">
              <mxPoint x="300" y="590" />
            </Array>
          </mxGeometry>
        </mxCell>
        <mxCell id="gG0_Y2ebSLgO2bjYxy1f-90" value="Fecha" style="ellipse;whiteSpace=wrap;html=1;align=center;fillColor=#FFD966;" parent="1" vertex="1">
          <mxGeometry x="-410" y="420" width="100" height="40" as="geometry" />
        </mxCell>
        <mxCell id="gG0_Y2ebSLgO2bjYxy1f-91" value="Hora" style="ellipse;whiteSpace=wrap;html=1;align=center;fillColor=#FFD966;" parent="1" vertex="1">
          <mxGeometry x="-410" y="510" width="100" height="40" as="geometry" />
        </mxCell>
        <mxCell id="gG0_Y2ebSLgO2bjYxy1f-92" value="" style="endArrow=none;html=1;rounded=0;entryX=0;entryY=0;entryDx=0;entryDy=0;exitX=1;exitY=0.5;exitDx=0;exitDy=0;" parent="1" source="gG0_Y2ebSLgO2bjYxy1f-90" target="gG0_Y2ebSLgO2bjYxy1f-85" edge="1">
          <mxGeometry width="50" height="50" relative="1" as="geometry">
            <mxPoint x="-100" y="480" as="sourcePoint" />
            <mxPoint x="-50" y="430" as="targetPoint" />
          </mxGeometry>
        </mxCell>
        <mxCell id="gG0_Y2ebSLgO2bjYxy1f-93" value="" style="endArrow=none;html=1;rounded=0;entryX=0;entryY=1;entryDx=0;entryDy=0;exitX=1;exitY=0.5;exitDx=0;exitDy=0;" parent="1" source="gG0_Y2ebSLgO2bjYxy1f-91" target="gG0_Y2ebSLgO2bjYxy1f-85" edge="1">
          <mxGeometry width="50" height="50" relative="1" as="geometry">
            <mxPoint x="-100" y="480" as="sourcePoint" />
            <mxPoint x="-50" y="430" as="targetPoint" />
          </mxGeometry>
        </mxCell>
        <mxCell id="gG0_Y2ebSLgO2bjYxy1f-94" value="&lt;u&gt;IDExcursión&lt;/u&gt;" style="ellipse;whiteSpace=wrap;html=1;align=center;fillColor=#FFD966;" parent="1" vertex="1">
          <mxGeometry x="-110" y="640" width="100" height="40" as="geometry" />
        </mxCell>
        <mxCell id="gG0_Y2ebSLgO2bjYxy1f-95" value="Tipo" style="ellipse;whiteSpace=wrap;html=1;align=center;fillColor=#FFD966;" parent="1" vertex="1">
          <mxGeometry x="90" y="640" width="100" height="40" as="geometry" />
        </mxCell>
        <mxCell id="gG0_Y2ebSLgO2bjYxy1f-96" value="Vehículo" style="ellipse;whiteSpace=wrap;html=1;align=center;fillColor=#FFD966;" parent="1" vertex="1">
          <mxGeometry x="30" y="710" width="100" height="40" as="geometry" />
        </mxCell>
        <mxCell id="gG0_Y2ebSLgO2bjYxy1f-97" value="A pie" style="ellipse;whiteSpace=wrap;html=1;align=center;fillColor=#FFD966;" parent="1" vertex="1">
          <mxGeometry x="160" y="710" width="100" height="40" as="geometry" />
        </mxCell>
        <mxCell id="gG0_Y2ebSLgO2bjYxy1f-98" value="" style="endArrow=none;html=1;rounded=0;entryX=0.25;entryY=1;entryDx=0;entryDy=0;exitX=0.5;exitY=0;exitDx=0;exitDy=0;" parent="1" source="gG0_Y2ebSLgO2bjYxy1f-94" target="gG0_Y2ebSLgO2bjYxy1f-83" edge="1">
          <mxGeometry width="50" height="50" relative="1" as="geometry">
            <mxPoint x="80" y="560" as="sourcePoint" />
            <mxPoint x="130" y="510" as="targetPoint" />
          </mxGeometry>
        </mxCell>
        <mxCell id="gG0_Y2ebSLgO2bjYxy1f-99" value="" style="endArrow=none;html=1;rounded=0;entryX=0.75;entryY=1;entryDx=0;entryDy=0;exitX=0.5;exitY=0;exitDx=0;exitDy=0;" parent="1" source="gG0_Y2ebSLgO2bjYxy1f-95" target="gG0_Y2ebSLgO2bjYxy1f-83" edge="1">
          <mxGeometry width="50" height="50" relative="1" as="geometry">
            <mxPoint x="80" y="560" as="sourcePoint" />
            <mxPoint x="130" y="510" as="targetPoint" />
          </mxGeometry>
        </mxCell>
        <mxCell id="gG0_Y2ebSLgO2bjYxy1f-103" value="" style="endArrow=none;html=1;rounded=0;entryX=0;entryY=1;entryDx=0;entryDy=0;exitX=0.5;exitY=0;exitDx=0;exitDy=0;" parent="1" source="gG0_Y2ebSLgO2bjYxy1f-96" target="gG0_Y2ebSLgO2bjYxy1f-95" edge="1">
          <mxGeometry width="50" height="50" relative="1" as="geometry">
            <mxPoint x="80" y="560" as="sourcePoint" />
            <mxPoint x="130" y="510" as="targetPoint" />
          </mxGeometry>
        </mxCell>
        <mxCell id="gG0_Y2ebSLgO2bjYxy1f-104" value="" style="endArrow=none;html=1;rounded=0;entryX=1;entryY=1;entryDx=0;entryDy=0;exitX=0.5;exitY=0;exitDx=0;exitDy=0;" parent="1" source="gG0_Y2ebSLgO2bjYxy1f-97" target="gG0_Y2ebSLgO2bjYxy1f-95" edge="1">
          <mxGeometry width="50" height="50" relative="1" as="geometry">
            <mxPoint x="80" y="560" as="sourcePoint" />
            <mxPoint x="130" y="510" as="targetPoint" />
          </mxGeometry>
        </mxCell>
        <mxCell id="gG0_Y2ebSLgO2bjYxy1f-105" value="" style="rounded=0;whiteSpace=wrap;html=1;fillColor=none;" parent="1" vertex="1">
          <mxGeometry y="575" width="80" height="30" as="geometry" />
        </mxCell>
        <mxCell id="hWpjtOSkeSgPAR7nEpx9-1" value="N:M" style="text;html=1;strokeColor=none;fillColor=none;align=center;verticalAlign=middle;whiteSpace=wrap;rounded=0;" parent="1" vertex="1">
          <mxGeometry x="1030" y="-10" width="60" height="30" as="geometry" />
        </mxCell>
        <mxCell id="hWpjtOSkeSgPAR7nEpx9-2" value="N:M" style="text;html=1;strokeColor=none;fillColor=none;align=center;verticalAlign=middle;whiteSpace=wrap;rounded=0;" parent="1" vertex="1">
          <mxGeometry x="1570" y="-10" width="60" height="30" as="geometry" />
        </mxCell>
        <mxCell id="hWpjtOSkeSgPAR7nEpx9-3" value="N:M" style="text;html=1;strokeColor=none;fillColor=none;align=center;verticalAlign=middle;whiteSpace=wrap;rounded=0;" parent="1" vertex="1">
          <mxGeometry x="2570" y="295" width="60" height="30" as="geometry" />
        </mxCell>
        <mxCell id="hWpjtOSkeSgPAR7nEpx9-4" value="N:M" style="text;html=1;strokeColor=none;fillColor=none;align=center;verticalAlign=middle;whiteSpace=wrap;rounded=0;" parent="1" vertex="1">
          <mxGeometry x="870" y="245" width="60" height="30" as="geometry" />
        </mxCell>
        <mxCell id="hWpjtOSkeSgPAR7nEpx9-5" value="N:1" style="text;html=1;strokeColor=none;fillColor=none;align=center;verticalAlign=middle;whiteSpace=wrap;rounded=0;" parent="1" vertex="1">
          <mxGeometry x="880" y="465" width="60" height="30" as="geometry" />
        </mxCell>
        <mxCell id="hWpjtOSkeSgPAR7nEpx9-6" value="1:N" style="text;html=1;strokeColor=none;fillColor=none;align=center;verticalAlign=middle;whiteSpace=wrap;rounded=0;" parent="1" vertex="1">
          <mxGeometry x="870" y="685" width="60" height="30" as="geometry" />
        </mxCell>
        <mxCell id="hWpjtOSkeSgPAR7nEpx9-7" value="&lt;u&gt;Nombre&lt;/u&gt;" style="ellipse;whiteSpace=wrap;html=1;align=center;fillColor=#FFD966;" parent="1" vertex="1">
          <mxGeometry x="900" y="350" width="100" height="40" as="geometry" />
        </mxCell>
        <mxCell id="hWpjtOSkeSgPAR7nEpx9-8" value="NºParques" style="ellipse;whiteSpace=wrap;html=1;align=center;fillColor=#FFD966;" parent="1" vertex="1">
          <mxGeometry x="630" y="310" width="100" height="40" as="geometry" />
        </mxCell>
        <mxCell id="hWpjtOSkeSgPAR7nEpx9-9" value="SuperficieTotal" style="ellipse;whiteSpace=wrap;html=1;align=center;fillColor=#FFD966;" parent="1" vertex="1">
          <mxGeometry x="630" y="380" width="100" height="40" as="geometry" />
        </mxCell>
        <mxCell id="hWpjtOSkeSgPAR7nEpx9-10" value="" style="endArrow=none;html=1;rounded=0;entryX=1;entryY=0.5;entryDx=0;entryDy=0;exitX=0;exitY=0.5;exitDx=0;exitDy=0;" parent="1" source="hWpjtOSkeSgPAR7nEpx9-7" target="XK4Mc1q5ekKsyZJ8U_UK-54" edge="1">
          <mxGeometry width="50" height="50" relative="1" as="geometry">
            <mxPoint x="780" y="500" as="sourcePoint" />
            <mxPoint x="830" y="450" as="targetPoint" />
          </mxGeometry>
        </mxCell>
        <mxCell id="hWpjtOSkeSgPAR7nEpx9-14" value="" style="endArrow=none;html=1;rounded=0;entryX=0;entryY=0;entryDx=0;entryDy=0;exitX=1;exitY=0.5;exitDx=0;exitDy=0;" parent="1" source="hWpjtOSkeSgPAR7nEpx9-8" target="XK4Mc1q5ekKsyZJ8U_UK-54" edge="1">
          <mxGeometry width="50" height="50" relative="1" as="geometry">
            <mxPoint x="780" y="500" as="sourcePoint" />
            <mxPoint x="830" y="450" as="targetPoint" />
          </mxGeometry>
        </mxCell>
        <mxCell id="hWpjtOSkeSgPAR7nEpx9-15" value="" style="endArrow=none;html=1;rounded=0;entryX=0;entryY=1;entryDx=0;entryDy=0;exitX=1;exitY=0.5;exitDx=0;exitDy=0;" parent="1" source="hWpjtOSkeSgPAR7nEpx9-9" target="XK4Mc1q5ekKsyZJ8U_UK-54" edge="1">
          <mxGeometry width="50" height="50" relative="1" as="geometry">
            <mxPoint x="780" y="500" as="sourcePoint" />
            <mxPoint x="830" y="450" as="targetPoint" />
          </mxGeometry>
        </mxCell>
        <mxCell id="hWpjtOSkeSgPAR7nEpx9-16" value="NºIndividuos" style="ellipse;whiteSpace=wrap;html=1;align=center;fillColor=#FFD966;" parent="1" vertex="1">
          <mxGeometry x="1820" y="-30" width="100" height="40" as="geometry" />
        </mxCell>
        <mxCell id="hWpjtOSkeSgPAR7nEpx9-17" value="" style="endArrow=none;html=1;rounded=0;entryX=0.5;entryY=0;entryDx=0;entryDy=0;exitX=0.5;exitY=1;exitDx=0;exitDy=0;" parent="1" source="hWpjtOSkeSgPAR7nEpx9-16" target="52x9yhvEbFXOKA9_f1Lk-7" edge="1">
          <mxGeometry width="50" height="50" relative="1" as="geometry">
            <mxPoint x="1920" y="180" as="sourcePoint" />
            <mxPoint x="1970" y="130" as="targetPoint" />
          </mxGeometry>
        </mxCell>
        <mxCell id="hWpjtOSkeSgPAR7nEpx9-18" value="Sueldo" style="ellipse;whiteSpace=wrap;html=1;align=center;fillColor=#FFD966;" parent="1" vertex="1">
          <mxGeometry x="890" y="790" width="100" height="40" as="geometry" />
        </mxCell>
        <mxCell id="hWpjtOSkeSgPAR7nEpx9-19" value="" style="endArrow=none;html=1;rounded=0;entryX=1;entryY=0.5;entryDx=0;entryDy=0;exitX=0;exitY=0.5;exitDx=0;exitDy=0;" parent="1" edge="1">
          <mxGeometry width="50" height="50" relative="1" as="geometry">
            <mxPoint x="890" y="810" as="sourcePoint" />
            <mxPoint x="860" y="810" as="targetPoint" />
          </mxGeometry>
        </mxCell>
        <mxCell id="hWpjtOSkeSgPAR7nEpx9-20" value="1:N" style="text;html=1;strokeColor=none;fillColor=none;align=center;verticalAlign=middle;whiteSpace=wrap;rounded=0;" parent="1" vertex="1">
          <mxGeometry x="1260" y="960" width="60" height="30" as="geometry" />
        </mxCell>
        <mxCell id="hWpjtOSkeSgPAR7nEpx9-21" value="N:1" style="text;html=1;strokeColor=none;fillColor=none;align=center;verticalAlign=middle;whiteSpace=wrap;rounded=0;" parent="1" vertex="1">
          <mxGeometry x="1120" y="245" width="60" height="30" as="geometry" />
        </mxCell>
        <mxCell id="hWpjtOSkeSgPAR7nEpx9-22" value="N:1" style="text;html=1;strokeColor=none;fillColor=none;align=center;verticalAlign=middle;whiteSpace=wrap;rounded=0;" parent="1" vertex="1">
          <mxGeometry x="1397.5" y="245" width="60" height="30" as="geometry" />
        </mxCell>
        <mxCell id="hWpjtOSkeSgPAR7nEpx9-23" value="N:M" style="text;html=1;strokeColor=none;fillColor=none;align=center;verticalAlign=middle;whiteSpace=wrap;rounded=0;" parent="1" vertex="1">
          <mxGeometry x="1260" y="1240" width="60" height="30" as="geometry" />
        </mxCell>
        <mxCell id="hWpjtOSkeSgPAR7nEpx9-24" value="N:M" style="text;html=1;strokeColor=none;fillColor=none;align=center;verticalAlign=middle;whiteSpace=wrap;rounded=0;" parent="1" vertex="1">
          <mxGeometry x="1660" y="245" width="60" height="30" as="geometry" />
        </mxCell>
        <mxCell id="hWpjtOSkeSgPAR7nEpx9-26" value="N:M" style="text;html=1;strokeColor=none;fillColor=none;align=center;verticalAlign=middle;whiteSpace=wrap;rounded=0;" parent="1" vertex="1">
          <mxGeometry x="370" y="245" width="60" height="30" as="geometry" />
        </mxCell>
        <mxCell id="hWpjtOSkeSgPAR7nEpx9-27" value="1:N" style="text;html=1;strokeColor=none;fillColor=none;align=center;verticalAlign=middle;whiteSpace=wrap;rounded=0;" parent="1" vertex="1">
          <mxGeometry x="-170" y="245" width="60" height="30" as="geometry" />
        </mxCell>
        <mxCell id="hWpjtOSkeSgPAR7nEpx9-28" value="N:M" style="text;html=1;strokeColor=none;fillColor=none;align=center;verticalAlign=middle;whiteSpace=wrap;rounded=0;" parent="1" vertex="1">
          <mxGeometry x="10" y="310" width="60" height="30" as="geometry" />
        </mxCell>
        <mxCell id="hWpjtOSkeSgPAR7nEpx9-29" value="N:M" style="text;html=1;strokeColor=none;fillColor=none;align=center;verticalAlign=middle;whiteSpace=wrap;rounded=0;" parent="1" vertex="1">
          <mxGeometry x="-170" y="465" width="60" height="30" as="geometry" />
        </mxCell>
        <mxCell id="hWpjtOSkeSgPAR7nEpx9-30" value="N:1" style="text;html=1;strokeColor=none;fillColor=none;align=center;verticalAlign=middle;whiteSpace=wrap;rounded=0;" parent="1" vertex="1">
          <mxGeometry x="320" y="500" width="60" height="30" as="geometry" />
        </mxCell>
        <mxCell id="hWpjtOSkeSgPAR7nEpx9-31" value="(1,N)" style="text;html=1;strokeColor=none;fillColor=none;align=center;verticalAlign=middle;whiteSpace=wrap;rounded=0;" parent="1" vertex="1">
          <mxGeometry x="850" y="20" width="60" height="30" as="geometry" />
        </mxCell>
        <mxCell id="hWpjtOSkeSgPAR7nEpx9-32" value="(1,N)" style="text;html=1;strokeColor=none;fillColor=none;align=center;verticalAlign=middle;whiteSpace=wrap;rounded=0;" parent="1" vertex="1">
          <mxGeometry x="1230" y="20" width="60" height="30" as="geometry" />
        </mxCell>
        <mxCell id="hWpjtOSkeSgPAR7nEpx9-33" value="&lt;u&gt;IDÁrea&lt;/u&gt;" style="ellipse;whiteSpace=wrap;html=1;align=center;fillColor=#FFD966;" parent="1" vertex="1">
          <mxGeometry x="1280" y="-40" width="100" height="40" as="geometry" />
        </mxCell>
        <mxCell id="hWpjtOSkeSgPAR7nEpx9-34" value="" style="endArrow=none;html=1;rounded=0;entryX=0.5;entryY=1;entryDx=0;entryDy=0;exitX=0.5;exitY=0;exitDx=0;exitDy=0;" parent="1" source="XK4Mc1q5ekKsyZJ8U_UK-17" target="hWpjtOSkeSgPAR7nEpx9-33" edge="1">
          <mxGeometry width="50" height="50" relative="1" as="geometry">
            <mxPoint x="1200" y="70" as="sourcePoint" />
            <mxPoint x="1250" y="20" as="targetPoint" />
          </mxGeometry>
        </mxCell>
        <mxCell id="hWpjtOSkeSgPAR7nEpx9-35" value="(1,N)" style="text;html=1;strokeColor=none;fillColor=none;align=center;verticalAlign=middle;whiteSpace=wrap;rounded=0;" parent="1" vertex="1">
          <mxGeometry x="1370" y="20" width="60" height="30" as="geometry" />
        </mxCell>
        <mxCell id="hWpjtOSkeSgPAR7nEpx9-36" value="(1,N)" style="text;html=1;strokeColor=none;fillColor=none;align=center;verticalAlign=middle;whiteSpace=wrap;rounded=0;" parent="1" vertex="1">
          <mxGeometry x="1760" y="20" width="60" height="30" as="geometry" />
        </mxCell>
        <mxCell id="hWpjtOSkeSgPAR7nEpx9-37" value="(1,N)" style="text;html=1;strokeColor=none;fillColor=none;align=center;verticalAlign=middle;whiteSpace=wrap;rounded=0;" parent="1" vertex="1">
          <mxGeometry x="2290" y="280" width="60" height="30" as="geometry" />
        </mxCell>
        <mxCell id="hWpjtOSkeSgPAR7nEpx9-38" value="(1,N)" style="text;html=1;strokeColor=none;fillColor=none;align=center;verticalAlign=middle;whiteSpace=wrap;rounded=0;" parent="1" vertex="1">
          <mxGeometry x="1920" y="20" width="60" height="30" as="geometry" />
        </mxCell>
        <mxCell id="hWpjtOSkeSgPAR7nEpx9-39" value="(1,N)" style="text;html=1;strokeColor=none;fillColor=none;align=center;verticalAlign=middle;whiteSpace=wrap;rounded=0;" parent="1" vertex="1">
          <mxGeometry x="1810" y="80" width="60" height="30" as="geometry" />
        </mxCell>
        <mxCell id="hWpjtOSkeSgPAR7nEpx9-40" value="(0,N)" style="text;html=1;strokeColor=none;fillColor=none;align=center;verticalAlign=middle;whiteSpace=wrap;rounded=0;" parent="1" vertex="1">
          <mxGeometry x="1552.5" y="1177.5" width="60" height="30" as="geometry" />
        </mxCell>
        <mxCell id="hWpjtOSkeSgPAR7nEpx9-41" value="(1,N)" style="text;html=1;strokeColor=none;fillColor=none;align=center;verticalAlign=middle;whiteSpace=wrap;rounded=0;" parent="1" vertex="1">
          <mxGeometry x="1392.5" y="1177.5" width="60" height="30" as="geometry" />
        </mxCell>
        <mxCell id="hWpjtOSkeSgPAR7nEpx9-42" value="(1,N)" style="text;html=1;strokeColor=none;fillColor=none;align=center;verticalAlign=middle;whiteSpace=wrap;rounded=0;" parent="1" vertex="1">
          <mxGeometry x="690" y="1040" width="60" height="30" as="geometry" />
        </mxCell>
        <mxCell id="hWpjtOSkeSgPAR7nEpx9-43" value="(1,1)" style="text;html=1;strokeColor=none;fillColor=none;align=center;verticalAlign=middle;whiteSpace=wrap;rounded=0;" parent="1" vertex="1">
          <mxGeometry x="1130" y="990" width="60" height="30" as="geometry" />
        </mxCell>
        <mxCell id="hWpjtOSkeSgPAR7nEpx9-44" value="(1,N)" style="text;html=1;strokeColor=none;fillColor=none;align=center;verticalAlign=middle;whiteSpace=wrap;rounded=0;" parent="1" vertex="1">
          <mxGeometry x="1397.5" y="990" width="60" height="30" as="geometry" />
        </mxCell>
        <mxCell id="hWpjtOSkeSgPAR7nEpx9-45" value="(0,N)" style="text;html=1;strokeColor=none;fillColor=none;align=center;verticalAlign=middle;whiteSpace=wrap;rounded=0;" parent="1" vertex="1">
          <mxGeometry x="810" y="80" width="60" height="30" as="geometry" />
        </mxCell>
        <mxCell id="hWpjtOSkeSgPAR7nEpx9-46" value="(1,N)" style="text;html=1;strokeColor=none;fillColor=none;align=center;verticalAlign=middle;whiteSpace=wrap;rounded=0;" parent="1" vertex="1">
          <mxGeometry x="810" y="310" width="60" height="30" as="geometry" />
        </mxCell>
        <mxCell id="hWpjtOSkeSgPAR7nEpx9-47" value="(1,1)" style="text;html=1;strokeColor=none;fillColor=none;align=center;verticalAlign=middle;whiteSpace=wrap;rounded=0;" parent="1" vertex="1">
          <mxGeometry x="820" y="400" width="60" height="30" as="geometry" />
        </mxCell>
        <mxCell id="hWpjtOSkeSgPAR7nEpx9-48" value="(0,N)" style="text;html=1;strokeColor=none;fillColor=none;align=center;verticalAlign=middle;whiteSpace=wrap;rounded=0;" parent="1" vertex="1">
          <mxGeometry x="810" y="530" width="60" height="30" as="geometry" />
        </mxCell>
        <mxCell id="hWpjtOSkeSgPAR7nEpx9-49" value="(1,N)" style="text;html=1;strokeColor=none;fillColor=none;align=center;verticalAlign=middle;whiteSpace=wrap;rounded=0;" parent="1" vertex="1">
          <mxGeometry x="810" y="610" width="60" height="30" as="geometry" />
        </mxCell>
        <mxCell id="hWpjtOSkeSgPAR7nEpx9-50" value="(0,N)" style="text;html=1;strokeColor=none;fillColor=none;align=center;verticalAlign=middle;whiteSpace=wrap;rounded=0;" parent="1" vertex="1">
          <mxGeometry x="300" y="320" width="60" height="30" as="geometry" />
        </mxCell>
        <mxCell id="hWpjtOSkeSgPAR7nEpx9-51" value="(0,N)" style="text;html=1;strokeColor=none;fillColor=none;align=center;verticalAlign=middle;whiteSpace=wrap;rounded=0;" parent="1" vertex="1">
          <mxGeometry x="730" y="140" width="60" height="30" as="geometry" />
        </mxCell>
        <mxCell id="hWpjtOSkeSgPAR7nEpx9-52" value="(1,N)" style="text;html=1;strokeColor=none;fillColor=none;align=center;verticalAlign=middle;whiteSpace=wrap;rounded=0;" parent="1" vertex="1">
          <mxGeometry x="680" y="80" width="60" height="30" as="geometry" />
        </mxCell>
        <mxCell id="hWpjtOSkeSgPAR7nEpx9-53" value="(1,N)" style="text;html=1;strokeColor=none;fillColor=none;align=center;verticalAlign=middle;whiteSpace=wrap;rounded=0;" parent="1" vertex="1">
          <mxGeometry x="-230" y="320" width="60" height="30" as="geometry" />
        </mxCell>
        <mxCell id="hWpjtOSkeSgPAR7nEpx9-54" value="(1,N)" style="text;html=1;strokeColor=none;fillColor=none;align=center;verticalAlign=middle;whiteSpace=wrap;rounded=0;" parent="1" vertex="1">
          <mxGeometry x="-230" y="400" width="60" height="30" as="geometry" />
        </mxCell>
        <mxCell id="hWpjtOSkeSgPAR7nEpx9-55" value="(1,N)" style="text;html=1;strokeColor=none;fillColor=none;align=center;verticalAlign=middle;whiteSpace=wrap;rounded=0;" parent="1" vertex="1">
          <mxGeometry x="-70" y="560" width="60" height="30" as="geometry" />
        </mxCell>
        <mxCell id="hWpjtOSkeSgPAR7nEpx9-56" value="(1,N)" style="text;html=1;strokeColor=none;fillColor=none;align=center;verticalAlign=middle;whiteSpace=wrap;rounded=0;" parent="1" vertex="1">
          <mxGeometry x="90" y="560" width="60" height="30" as="geometry" />
        </mxCell>
        <mxCell id="hWpjtOSkeSgPAR7nEpx9-57" value="(1,N)" style="text;html=1;strokeColor=none;fillColor=none;align=center;verticalAlign=middle;whiteSpace=wrap;rounded=0;" parent="1" vertex="1">
          <mxGeometry x="300" y="410" width="60" height="30" as="geometry" />
        </mxCell>
        <mxCell id="hWpjtOSkeSgPAR7nEpx9-58" value="(N,M)" style="text;html=1;strokeColor=none;fillColor=none;align=center;verticalAlign=middle;whiteSpace=wrap;rounded=0;" parent="1" vertex="1">
          <mxGeometry x="800" y="760" width="60" height="30" as="geometry" />
        </mxCell>
        <mxCell id="hWpjtOSkeSgPAR7nEpx9-59" value="(1,N)" style="text;html=1;strokeColor=none;fillColor=none;align=center;verticalAlign=middle;whiteSpace=wrap;rounded=0;" parent="1" vertex="1">
          <mxGeometry x="1252.5" y="70" width="60" height="30" as="geometry" />
        </mxCell>
        <mxCell id="hWpjtOSkeSgPAR7nEpx9-60" value="(1,N)" style="text;html=1;strokeColor=none;fillColor=none;align=center;verticalAlign=middle;whiteSpace=wrap;rounded=0;" parent="1" vertex="1">
          <mxGeometry x="1330" y="70" width="60" height="30" as="geometry" />
        </mxCell>
        <mxCell id="hWpjtOSkeSgPAR7nEpx9-61" value="(1,N)" style="text;html=1;strokeColor=none;fillColor=none;align=center;verticalAlign=middle;whiteSpace=wrap;rounded=0;" parent="1" vertex="1">
          <mxGeometry x="930" y="1050" width="60" height="30" as="geometry" />
        </mxCell>
        <mxCell id="hWpjtOSkeSgPAR7nEpx9-62" value="(1,N)" style="text;html=1;strokeColor=none;fillColor=none;align=center;verticalAlign=middle;whiteSpace=wrap;rounded=0;" parent="1" vertex="1">
          <mxGeometry x="1080" y="1050" width="60" height="30" as="geometry" />
        </mxCell>
      </root>
    </mxGraphModel>
  </diagram>
</mxfile>
